<?xml version="1.0" encoding="UTF-8"?>
<!DOCTYPE svg PUBLIC "-//W3C//DTD SVG 1.1//EN" "http://www.w3.org/Graphics/SVG/1.1/DTD/svg11.dtd">
<svg xmlns="http://www.w3.org/2000/svg" version="1.1" width="2400px" height="1600px" style="shape-rendering:geometricPrecision; text-rendering:geometricPrecision; image-rendering:optimizeQuality; fill-rule:evenodd; clip-rule:evenodd" xmlns:xlink="http://www.w3.org/1999/xlink">
<g><path style="opacity:0.978" fill="#00608a" d="M 1822.5,403.5 C 1844.87,402.341 1866.2,406.507 1886.5,416C 1899.94,421.885 1912.94,428.552 1925.5,436C 1935.83,443.667 1946.17,451.333 1956.5,459C 1992.7,459.373 2027.7,466.04 2061.5,479C 2143.01,520.832 2211.51,578.332 2267,651.5C 2284.34,674.824 2299.67,699.49 2313,725.5C 2325.56,757.964 2339.23,789.964 2354,821.5C 2367.54,847.922 2380.54,874.588 2393,901.5C 2396.25,907.004 2399.75,912.338 2403.5,917.5C 2409.22,921.579 2415.55,924.412 2422.5,926C 2442.74,934.787 2462.74,944.12 2482.5,954C 2519.21,977.613 2554.05,1003.78 2587,1032.5C 2595,1042.5 2603,1052.5 2611,1062.5C 2611.5,1064.81 2611.66,1067.14 2611.5,1069.5C 2599.54,1072.76 2587.54,1075.93 2575.5,1079C 2560.81,1080.85 2546.15,1082.85 2531.5,1085C 2516.52,1088.99 2501.52,1092.83 2486.5,1096.5C 2491.55,1105.39 2498.22,1112.89 2506.5,1119C 2522,1128.92 2537.67,1138.58 2553.5,1148C 2562.02,1154.43 2570.35,1161.09 2578.5,1168C 2596.7,1186.53 2614.53,1205.36 2632,1224.5C 2634.47,1230.25 2637.14,1235.92 2640,1241.5C 2640.75,1242.64 2640.58,1243.64 2639.5,1244.5C 2620.76,1229.95 2601.76,1215.78 2582.5,1202C 2559.03,1189.76 2535.36,1177.76 2511.5,1166C 2497.89,1156.72 2484.55,1147.05 2471.5,1137C 2455.07,1122.26 2443.07,1104.59 2435.5,1084C 2435.92,1080.58 2437.59,1077.91 2440.5,1076C 2482.39,1058.68 2526.06,1050.85 2571.5,1052.5C 2567.69,1045.53 2562.36,1040.03 2555.5,1036C 2528.99,1018.58 2502.66,1000.91 2476.5,983C 2469.3,979.271 2461.97,975.938 2454.5,973C 2433.31,965.268 2411.97,957.935 2390.5,951C 2384.24,948.623 2378.74,945.123 2374,940.5C 2360.88,921.264 2349.54,900.931 2340,879.5C 2326.83,848.818 2312.83,818.484 2298,788.5C 2292.08,775.07 2286.75,761.403 2282,747.5C 2234.48,650.981 2163.98,576.148 2070.5,523C 2050.74,512.12 2030.08,503.454 2008.5,497C 1986.23,494.426 1963.89,492.426 1941.5,491C 1931.99,485.826 1923.33,479.493 1915.5,472C 1895.53,459.514 1874.53,448.847 1852.5,440C 1844.81,437.546 1836.97,435.713 1829,434.5C 1818.22,435.116 1812.05,440.783 1810.5,451.5C 1812.73,462.303 1816.9,472.303 1823,481.5C 1840.89,503.615 1857.56,526.615 1873,550.5C 1884.98,577.763 1894.98,605.763 1903,634.5C 1910.09,656.342 1920.09,676.675 1933,695.5C 1938.66,702.162 1944.66,708.495 1951,714.5C 1956.14,721.753 1957.81,729.753 1956,738.5C 1952.07,755.297 1946.73,771.63 1940,787.5C 1926.35,837.266 1927.68,886.933 1944,936.5C 1948.38,950.427 1955.21,962.927 1964.5,974C 1968.14,976.803 1972.14,978.97 1976.5,980.5C 1977.17,980.167 1977.83,979.833 1978.5,979.5C 1981.22,959.504 1984.06,939.504 1987,919.5C 1989.65,902.545 1995.98,887.211 2006,873.5C 2011.69,866.644 2017.19,859.644 2022.5,852.5C 2023,851.479 2023.67,851.312 2024.5,852C 2051.24,920.652 2086.4,984.486 2130,1043.5C 2141.68,1058.02 2154.85,1071.02 2169.5,1082.5C 2168.28,1083.61 2166.94,1083.78 2165.5,1083C 2160.9,1080.73 2156.57,1078.06 2152.5,1075C 2136.32,1058.14 2118.99,1042.81 2100.5,1029C 2081.12,1011.96 2064.28,992.792 2050,971.5C 2042,955.5 2034,939.5 2026,923.5C 2021.48,942.265 2018.15,961.265 2016,980.5C 2011.2,1005.97 1996.03,1016.47 1970.5,1012C 1956.95,1006.12 1946.12,996.955 1938,984.5C 1918.33,953.741 1907.33,920.407 1905,884.5C 1902.97,859.721 1903.97,835.055 1908,810.5C 1913.2,789.888 1918.2,769.221 1923,748.5C 1924.29,744.63 1925.95,740.964 1928,737.5C 1928.12,733.384 1926.78,729.717 1924,726.5C 1917.27,720.765 1911.6,714.098 1907,706.5C 1889.2,676.231 1875.2,644.231 1865,610.5C 1860.82,596.763 1856.48,583.097 1852,569.5C 1847.92,562.332 1843.58,555.332 1839,548.5C 1824.63,529.47 1810.29,510.47 1796,491.5C 1785.71,476.354 1781.71,459.687 1784,441.5C 1788.82,420.508 1801.66,407.841 1822.5,403.5 Z"/></g>
<g><path style="opacity:0.96" fill="#00608a" d="M 1965.5,547.5 C 1970.18,547.334 1974.85,547.501 1979.5,548C 1984.96,551.787 1990.12,555.954 1995,560.5C 2004.68,576.779 2002.51,591.446 1988.5,604.5C 1983.11,594.723 1977.94,584.723 1973,574.5C 1968.33,569.167 1963.67,563.833 1959,558.5C 1956.94,555.714 1955.44,552.714 1954.5,549.5C 1958.39,549.354 1962.05,548.687 1965.5,547.5 Z"/></g>
<g><path style="opacity:0.989" fill="#00608a" d="M 418.5,1130.5 C 441.016,1128.96 461.016,1135.12 478.5,1149C 489.591,1161 497.758,1174.84 503,1190.5C 537.472,1270.92 572.139,1351.25 607,1431.5C 645.532,1347.1 683.532,1262.43 721,1177.5C 734.639,1146.23 758.639,1130.56 793,1130.5C 811.063,1131.18 828.563,1134.68 845.5,1141C 863.402,1148.93 872.569,1162.76 873,1182.5C 873.5,1284.83 873.667,1387.17 873.5,1489.5C 847.833,1489.5 822.167,1489.5 796.5,1489.5C 796.667,1390.17 796.5,1290.83 796,1191.5C 755.823,1281.56 715.156,1371.89 674,1462.5C 659.089,1486.04 637.589,1496.37 609.5,1493.5C 581.808,1496.23 560.308,1486.23 545,1463.5C 504.341,1373.53 463.674,1283.53 423,1193.5C 422.5,1292.17 422.333,1390.83 422.5,1489.5C 396.833,1489.5 371.167,1489.5 345.5,1489.5C 345.011,1383.46 345.511,1277.46 347,1171.5C 350.526,1155.64 360.026,1145.14 375.5,1140C 389.593,1135.08 403.926,1131.92 418.5,1130.5 Z"/></g>
<g><path style="opacity:0.984" fill="#e48d00" d="M 1466.5,1137.5 C 1543.5,1137.5 1620.5,1137.5 1697.5,1137.5C 1697.5,1154.83 1697.5,1172.17 1697.5,1189.5C 1622.17,1189.33 1546.83,1189.5 1471.5,1190C 1461.66,1190.43 1452.33,1192.77 1443.5,1197C 1437.89,1201.47 1434.73,1207.3 1434,1214.5C 1433.08,1230.21 1433.41,1245.88 1435,1261.5C 1440.05,1278.53 1451.55,1287.37 1469.5,1288C 1507.5,1288.33 1545.5,1288.67 1583.5,1289C 1614.14,1289.74 1642.48,1298.07 1668.5,1314C 1681.21,1322.38 1689.71,1333.88 1694,1348.5C 1694.67,1373.17 1694.67,1397.83 1694,1422.5C 1689.16,1442.67 1677.66,1457.84 1659.5,1468C 1644.03,1476.48 1628.03,1482.48 1611.5,1486C 1604.23,1487.43 1596.89,1488.43 1589.5,1489C 1511.83,1489.5 1434.17,1489.67 1356.5,1489.5C 1356.5,1472.17 1356.5,1454.83 1356.5,1437.5C 1430.5,1437.67 1504.5,1437.5 1578.5,1437C 1594.09,1435.96 1606.26,1429.13 1615,1416.5C 1615.82,1414.21 1616.49,1411.88 1617,1409.5C 1617.67,1394.17 1617.67,1378.83 1617,1363.5C 1612.72,1350.06 1603.56,1342.06 1589.5,1339.5C 1584.54,1338.45 1579.54,1337.62 1574.5,1337C 1536.15,1336.86 1497.82,1336.19 1459.5,1335C 1435.74,1332.75 1413.24,1326.25 1392,1315.5C 1377.35,1307.18 1366.51,1295.35 1359.5,1280C 1358.29,1276.25 1357.46,1272.42 1357,1268.5C 1356.33,1250.17 1356.33,1231.83 1357,1213.5C 1358.82,1185 1372.65,1164.84 1398.5,1153C 1420.18,1142.9 1442.84,1137.73 1466.5,1137.5 Z"/></g>
<g><path style="opacity:0.985" fill="#e48d00" d="M 2168.5,1137.5 C 2194.17,1137.5 2219.83,1137.5 2245.5,1137.5C 2245.33,1228.17 2245.5,1318.83 2246,1409.5C 2248.08,1419.25 2253.58,1426.42 2262.5,1431C 2270.18,1434.25 2278.18,1436.25 2286.5,1437C 2359.83,1437.5 2433.17,1437.67 2506.5,1437.5C 2506.5,1454.83 2506.5,1472.17 2506.5,1489.5C 2436.02,1489.2 2365.69,1489.53 2295.5,1490.5C 2282.23,1488.56 2268.89,1486.73 2255.5,1485C 2228.79,1481.44 2205.62,1470.61 2186,1452.5C 2176.55,1441.59 2170.88,1428.92 2169,1414.5C 2168.5,1322.17 2168.33,1229.83 2168.5,1137.5 Z"/></g>
<g><path style="opacity:0.987" fill="#e48d00" d="M 1845.5,1138.5 C 1905.86,1138.03 1966.19,1138.53 2026.5,1140C 2050.84,1142.67 2073.17,1150.67 2093.5,1164C 2110.39,1176.94 2119.55,1194.1 2121,1215.5C 2121.67,1281.17 2121.67,1346.83 2121,1412.5C 2119.58,1442.89 2104.75,1463.39 2076.5,1474C 2101.32,1495.98 2125.98,1518.15 2150.5,1540.5C 2120.51,1541.67 2090.51,1541.83 2060.5,1541C 2041.13,1523.32 2021.79,1505.66 2002.5,1488C 1989.73,1487.51 1977.06,1488.34 1964.5,1490.5C 1922.29,1490.48 1880.12,1490.48 1838,1490.5C 1818.67,1486.93 1799.84,1480.77 1781.5,1472C 1760.25,1460.54 1747.25,1442.87 1742.5,1419C 1742.35,1349.96 1742.51,1280.79 1743,1211.5C 1746.36,1188.62 1757.86,1171.12 1777.5,1159C 1798.97,1147.8 1821.64,1140.97 1845.5,1138.5 Z M 1867.5,1190.5 C 1914.5,1190.33 1961.5,1190.5 2008.5,1191C 2022.31,1192.49 2033.81,1198.32 2043,1208.5C 2046.09,1212.68 2048.09,1217.35 2049,1222.5C 2049.67,1283.5 2049.67,1344.5 2049,1405.5C 2046.92,1417.25 2040.58,1425.92 2030,1431.5C 2011.5,1415 1993,1398.5 1974.5,1382C 1944.83,1381.17 1915.16,1381.33 1885.5,1382.5C 1905.97,1401.46 1926.63,1420.29 1947.5,1439C 1920.14,1439.92 1892.81,1439.58 1865.5,1438C 1851.7,1436.36 1840.54,1430.19 1832,1419.5C 1829.21,1414.47 1827.21,1409.13 1826,1403.5C 1825.33,1342.83 1825.33,1282.17 1826,1221.5C 1827.95,1212.96 1832.45,1206.12 1839.5,1201C 1848.4,1195.34 1857.73,1191.84 1867.5,1190.5 Z"/></g>
<g><path style="opacity:0.991" fill="#006089" d="M 1221.5,1243.5 C 1247.17,1243.5 1272.83,1243.5 1298.5,1243.5C 1298.67,1336.17 1298.5,1428.83 1298,1521.5C 1294.94,1545.56 1282.77,1563.39 1261.5,1575C 1239.53,1586.33 1216.2,1592.99 1191.5,1595C 1106.83,1595.5 1022.17,1595.67 937.5,1595.5C 937.5,1578.17 937.5,1560.83 937.5,1543.5C 1021.53,1543.98 1105.53,1543.48 1189.5,1542C 1201.26,1540.21 1210.76,1534.71 1218,1525.5C 1218.86,1523.91 1219.53,1522.25 1220,1520.5C 1220.5,1509.51 1220.67,1498.51 1220.5,1487.5C 1165.5,1487.67 1110.5,1487.5 1055.5,1487C 1027.45,1486.99 1000.79,1480.99 975.5,1469C 962.195,1462.36 951.361,1452.86 943,1440.5C 939.478,1434.6 937.145,1428.27 936,1421.5C 936.26,1362.49 936.093,1303.49 935.5,1244.5C 961.167,1244.5 986.833,1244.5 1012.5,1244.5C 1012.33,1302.17 1012.5,1359.83 1013,1417.5C 1016.24,1427.74 1023.07,1434.24 1033.5,1437C 1038.71,1438.64 1044.05,1439.64 1049.5,1440C 1106.83,1440.5 1164.17,1440.67 1221.5,1440.5C 1221.5,1374.83 1221.5,1309.17 1221.5,1243.5 Z"/></g>
<g><path style="opacity:0.927" fill="#e48d00" d="M 2589.5,1380.5 C 2617.8,1378.39 2637.97,1390.06 2650,1415.5C 2659.17,1445.33 2651.34,1468.83 2626.5,1486C 2599.62,1498.82 2575.45,1494.99 2554,1474.5C 2536,1449.5 2536,1424.5 2554,1399.5C 2563.86,1389.32 2575.69,1382.99 2589.5,1380.5 Z M 2625.5,1469.5 C 2615.04,1479.04 2602.7,1482.54 2588.5,1480C 2563.75,1472.36 2552.58,1455.53 2555,1429.5C 2561.73,1403.08 2578.56,1391.25 2605.5,1394C 2627.42,1399.93 2639.09,1414.26 2640.5,1437C 2640.19,1450.14 2635.19,1460.98 2625.5,1469.5 Z M 2586.5,1414.5 C 2593.57,1414.16 2600.57,1414.66 2607.5,1416C 2611.75,1419.42 2612.59,1423.59 2610,1428.5C 2608.58,1429.46 2607.08,1430.29 2605.5,1431C 2599.18,1431.5 2592.84,1431.67 2586.5,1431.5C 2586.5,1425.83 2586.5,1420.17 2586.5,1414.5 Z"/></g>
<g><path style="opacity:0.905" fill="#e48d00" d="M 2625.5,1469.5 C 2620.79,1469.83 2616.12,1469.49 2611.5,1468.5C 2606.18,1459.87 2600.85,1451.2 2595.5,1442.5C 2592.57,1441.52 2589.57,1441.18 2586.5,1441.5C 2586.5,1450.83 2586.5,1460.17 2586.5,1469.5C 2582.5,1469.5 2578.5,1469.5 2574.5,1469.5C 2574.5,1447.83 2574.5,1426.17 2574.5,1404.5C 2585.51,1404.33 2596.51,1404.5 2607.5,1405C 2622.53,1407.87 2627.69,1416.7 2623,1431.5C 2619.47,1437 2614.64,1440.67 2608.5,1442.5C 2614.44,1451.39 2620.11,1460.39 2625.5,1469.5 Z M 2586.5,1414.5 C 2586.5,1420.17 2586.5,1425.83 2586.5,1431.5C 2592.84,1431.67 2599.18,1431.5 2605.5,1431C 2607.08,1430.29 2608.58,1429.46 2610,1428.5C 2612.59,1423.59 2611.75,1419.42 2607.5,1416C 2600.57,1414.66 2593.57,1414.16 2586.5,1414.5 Z"/></g>
</svg>
