<?xml version="1.0" encoding="UTF-8"?>
<svg xmlns="http://www.w3.org/2000/svg" version="1.1"
     width="573.5" height="570.4" viewBox="0 0 573.5 570.4">

  <style>
    .shadow {
      opacity: 0.25;
      fill: #000000;
    }
    .text {
      fill: #191818;
      font-weight: 600;
      letter-spacing: 4px;
      font-family: Arial, sans-serif;
    }
  </style>

  <g transform="
      translate(286.75,300)
      scale(1.50)
      translate(-286.75,-300)
    ">

    <ellipse class="shadow" cx="286.75" cy="390" rx="150" ry="25"></ellipse>

    <!-- 图标上移 20px：255 → 235 -->
    <g transform="translate(286.75,235) scale(0.175) translate(-292,-467)"
       style="shape-rendering:geometricPrecision;
              text-rendering:geometricPrecision;
              image-rendering:optimizeQuality;
              fill-rule:evenodd;
              clip-rule:evenodd">

      <path style="opacity:0.992" fill="#191818"
            d="M 137.5,-0.5 C 151.167,-0.5 164.833,-0.5 178.5,-0.5C 234.123,11.9564 268.29,45.9564 281,101.5C 287.69,156.16 268.523,198.993 223.5,230C 217.725,233.439 211.725,236.439 205.5,239C 198.594,240.969 191.76,243.136 185,245.5C 184.174,267.073 184.34,288.573 185.5,310C 224.228,316.776 256.061,335.276 281,365.5C 298.761,355.036 316.594,344.703 334.5,334.5C 335.287,333.758 335.953,332.925 336.5,332C 322.47,278.785 335.804,234.119 376.5,198C 420.633,165.852 467.3,161.852 516.5,186C 568.542,219.288 588.376,266.454 576,327.5C 561.798,375.035 530.632,404.868 482.5,417C 435.919,425.136 396.086,412.636 363,379.5C 344.402,390.214 325.902,401.047 307.5,412C 314.424,429.288 317.757,447.288 317.5,466C 317.936,485.387 314.603,504.053 307.5,522C 309.116,522.615 310.449,523.615 311.5,525C 328.667,534.833 345.833,544.667 363,554.5C 401.907,515.317 447.74,504.484 500.5,522C 556.628,547.511 582.795,591.345 579,653.5C 570.985,704.049 543.152,738.549 495.5,757C 440.209,772.482 394.042,758.649 357,715.5C 331.766,680.653 324.766,642.319 336,600.5C 317.699,589.847 299.366,579.18 281,568.5C 255.676,598.586 223.51,616.919 184.5,623.5C 184.5,645.167 184.5,666.833 184.5,688.5C 237.194,702.027 269.361,735.361 281,788.5C 287.892,844.234 268.058,887.401 221.5,918C 214.666,921.873 207.666,925.206 200.5,928C 192.029,930.11 183.696,932.276 175.5,934.5C 163.833,934.5 152.167,934.5 140.5,934.5C 83.8395,922.672 48.6728,888.672 35,832.5C 28.5448,778.788 47.0448,736.288 90.5,705C 103.285,697.273 116.951,691.773 131.5,688.5C 131.5,666.833 131.5,645.167 131.5,623.5C 86.5026,615.662 51.0026,592.996 25,555.5C 12.5514,535.051 4.05143,513.051 -0.5,489.5C -0.5,474.167 -0.5,458.833 -0.5,443.5C 10.7713,384.141 44.1046,342.308 99.5,318C 109.829,314.332 120.329,311.498 131,309.5C 131.833,288.159 131.666,266.826 130.5,245.5C 69.883,227.226 37.5496,186.559 33.5,123.5C 36.2686,65.6404 64.2686,26.1404 117.5,5C 124.348,3.45694 131.015,1.62361 137.5,-0.5 Z M 151.5,66.5 C 176.082,65.9647 194.916,75.9647 208,96.5C 219.539,121.443 216.039,143.943 197.5,164C 173.78,183.129 149.113,184.463 123.5,168C 99.4461,145.733 95.2794,120.233 111,91.5C 121.386,78.0966 134.886,69.7633 151.5,66.5 Z M 448.5,238.5 C 479.905,238.062 500.739,252.729 511,282.5C 514.863,315.951 501.029,338.451 469.5,350C 438.023,354.848 415.523,343.015 402,314.5C 393.784,281.131 404.951,256.964 435.5,242C 440.031,241.093 444.364,239.927 448.5,238.5 Z M 150.5,384.5 C 189.188,384.071 217.021,401.071 234,435.5C 247.171,476.645 236.671,510.145 202.5,536C 175.869,551.059 148.536,552.392 120.5,540C 81.5722,515.949 68.4056,481.782 81,437.5C 94.4312,407.188 117.598,389.521 150.5,384.5 Z M 447.5,582.5 C 480.454,581.201 501.621,596.201 511,627.5C 514.867,658.253 502.701,679.753 474.5,692C 440.964,699.981 416.798,688.481 402,657.5C 394.097,628.486 402.597,605.653 427.5,589C 434.002,585.893 440.669,583.727 447.5,582.5 Z M 156.5,753.5 C 191.707,756.374 211.04,775.374 214.5,810.5C 213.807,830.721 205.14,846.555 188.5,858C 161.73,872.277 137.397,868.777 115.5,847.5C 97.0152,823.028 96.8486,798.361 115,773.5C 126.274,761.278 140.108,754.611 156.5,753.5 Z"/>
    </g>

    <text x="286.75" y="352" text-anchor="middle" class="text" font-size="38">
      Kafka
    </text>

  </g>
</svg>
