<?xml version="1.0" encoding="UTF-8"?>
<!DOCTYPE svg PUBLIC "-//W3C//DTD SVG 1.1//EN"
  "http://www.w3.org/Graphics/SVG/1.1/DTD/svg11.dtd">
<svg xmlns="http://www.w3.org/2000/svg"
     version="1.1"
     width="600"
     height="400"
     viewBox="0 0 3000 2000"
     style="shape-rendering:geometricPrecision; text-rendering:geometricPrecision;
            image-rendering:optimizeQuality; fill-rule:evenodd; clip-rule:evenodd">

<g><path style="opacity:0.978" fill="#00608a" d="M 1822.5,403.5 C 1844.87,402.341 1866.2,406.507 1886.5,416C 1899.94,421.885 1912.94,428.552 1925.5,436C 1935.83,443.667 1946.17,451.333 1956.5,459C 1992.7,459.373 2027.7,466.04 2061.5,479C 2143.01,520.832 2211.51,578.332 2267,651.5C 2284.34,674.824 2299.67,699.49 2313,725.5C 2325.56,757.964 2339.23,789.964 2354,821.5C 2367.54,847.922 2380.54,874.588 2393,901.5C 2396.25,907.004 2399.75,912.338 2403.5,917.5C 2409.22,921.579 2415.55,924.412 2422.5,926C 2442.74,934.787 2462.74,944.12 2482.5,954C 2519.21,977.613 2554.05,1003.78 2587,1032.5C 2595,1042.5 2603,1052.5 2611,1062.5C 2611.5,1064.81 2611.66,1067.14 2611.5,1069.5C 2599.54,1072.76 2587.54,1075.93 2575.5,1079C 2560.81,1080.85 2546.15,1082.85 2531.5,1085C 2516.52,1088.99 2501.52,1092.83 2486.5,1096.5C 2491.55,1105.39 2498.22,1112.89 2506.5,1119C 2522,1128.92 2537.67,1138.58 2553.5,1148C 2562.02,1154.43 2570.35,1161.09 2578.5,1168C 2596.7,1186.53 2614.53,1205.36 2632,1224.5C 2634.47,1230.25 2637.14,1235.92 2640,1241.5C 2640.75,1242.64 2640.58,1243.64 2639.5,1244.5C 2620.76,1229.95 2601.76,1215.78 2582.5,1202C 2559.03,1189.76 2535.36,1177.76 2511.5,1166C 2497.89,1156.72 2484.55,1147.05 2471.5,1137C 2455.07,1122.26 2443.07,1104.59 2435.5,1084C 2435.92,1080.58 2437.59,1077.91 2440.5,1076C 2482.39,1058.68 2526.06,1050.85 2571.5,1052.5C 2567.69,1045.53 2562.36,1040.03 2555.5,1036C 2528.99,1018.58 2502.66,1000.91 2476.5,983C 2469.3,979.271 2461.97,975.938 2454.5,973C 2433.31,965.268 2411.97,957.935 2390.5,951C 2384.24,948.623 2378.74,945.123 2374,940.5C 2360.88,921.264 2349.54,900.931 2340,879.5C 2326.83,848.818 2312.83,818.484 2298,788.5C 2292.08,775.07 2286.75,761.403 2282,747.5C 2234.48,650.981 2163.98,576.148 2070.5,523C 2050.74,512.12 2030.08,503.454 2008.5,497C 1986.23,494.426 1963.89,492.426 1941.5,491C 1931.99,485.826 1923.33,479.493 1915.5,472C 1895.53,459.514 1874.53,448.847 1852.5,440C 1844.81,437.546 1836.97,435.713 1829,434.5C 1818.22,435.116 1812.05,440.783 1810.5,451.5C 1812.73,462.303 1816.9,472.303 1823,481.5C 1840.89,503.615 1857.56,526.615 1873,550.5C 1884.98,577.763 1894.98,605.763 1903,634.5C 1910.09,656.342 1920.09,676.675 1933,695.5C 1938.66,702.162 1944.66,708.495 1951,714.5C 1956.14,721.753 1957.81,729.753 1956,738.5C 1952.07,755.297 1946.73,771.63 1940,787.5C 1926.35,837.266 1927.68,886.933 1944,936.5C 1948.38,950.427 1955.21,962.927 1964.5,974C 1968.14,976.803 1972.14,978.97 1976.5,980.5C 1977.17,980.167 1977.83,979.833 1978.5,979.5C 1981.22,959.504 1984.06,939.504 1987,919.5C 1989.65,902.545 1995.98,887.211 2006,873.5C 2011.69,866.644 2017.19,859.644 2022.5,852.5C 2023,851.479 2023.67,851.312 2024.5,852C 2051.24,920.652 2086.4,984.486 2130,1043.5C 2141.68,1058.02 2154.85,1071.02 2169.5,1082.5C 2168.28,1083.61 2166.94,1083.78 2165.5,1083C 2160.9,1080.73 2156.57,1078.06 2152.5,1075C 2136.32,1058.14 2118.99,1042.81 2100.5,1029C 2081.12,1011.96 2064.28,992.792 2050,971.5C 2042,955.5 2034,939.5 2026,923.5C 2021.48,942.265 2018.15,961.265 2016,980.5C 2011.2,1005.97 1996.03,1016.47 1970.5,1012C 1956.95,1006.12 1946.12,996.955 1938,984.5C 1918.33,953.741 1907.33,920.407 1905,884.5C 1902.97,859.721 1903.97,835.055 1908,810.5C 1913.2,789.888 1918.2,769.221 1923,748.5C 1924.29,744.63 1925.95,740.964 1928,737.5C 1928.12,733.384 1926.78,729.717 1924,726.5C 1917.27,720.765 1911.6,714.098 1907,706.5C 1889.2,676.231 1875.2,644.231 1865,610.5C 1860.82,596.763 1856.48,583.097 1852,569.5C 1847.92,562.332 1843.58,555.332 1839,548.5C 1824.63,529.47 1810.29,510.47 1796,491.5C 1785.71,476.354 1781.71,459.687 1784,441.5C 1788.82,420.508 1801.66,407.841 1822.5,403.5 Z"/></g>

<g><path style="opacity:0.96" fill="#00608a" d="M 1965.5,547.5 C 1970.18,547.334 1974.85,547.501 1979.5,548C 1984.96,551.787 1990.12,555.954 1995,560.5C 2004.68,576.779 2002.51,591.446 1988.5,604.5C 1983.11,594.723 1977.94,584.723 1973,574.5C 1968.33,569.167 1963.67,563.833 1959,558.5C 1956.94,555.714 1955.44,552.714 1954.5,549.5C 1958.39,549.354 1962.05,548.687 1965.5,547.5 Z"/></g>

</svg>
