<!--?xml version="1.0" encoding="UTF-8"?-->
<svg xmlns="http://www.w3.org/2000/svg" version="1.1" width="573.5" height="570.4" viewBox="0 0 573.5 570.4">

  <style>
    .shadow {
      opacity: 0.25;
      fill: #000000;
    }
    .text {
      fill: #336791;
      font-weight: 600;
      letter-spacing: 4px;
      font-family: Arial, sans-serif;
    }
  </style>

  <!-- 外层布局，与 Nginx 图标保持一致 -->
  <g transform="
      translate(286.75,300)
      scale(1.50)
      translate(-286.75,-300)
    ">

    <!-- 阴影 -->
    <ellipse class="shadow" cx="286.75" cy="390" rx="150" ry="25"></ellipse>

    <!-- PostgreSQL 大象图标，按你要求的位置和缩放 -->
    <g transform="translate(277.1,222) scale(0.22) translate(-450,-464)" style="shape-rendering:geometricPrecision;
              text-rendering:geometricPrecision;
              image-rendering:optimizeQuality;
              fill-rule:evenodd;
              clip-rule:evenodd">

      <g><path style="opacity:0.6" fill="#070707" d="M 621.5,-0.5 C 639.167,-0.5 656.833,-0.5 674.5,-0.5C 755.669,5.49718 821.836,39.8305 873,102.5C 883.575,117.548 890.241,134.215 893,152.5C 896.43,180.536 896.097,208.536 892,236.5C 880.134,312.097 857.8,384.43 825,453.5C 812.313,480.379 798.48,506.545 783.5,532C 803.3,530.743 822.966,528.077 842.5,524C 871.011,521.227 890.011,533.06 899.5,559.5C 899.5,565.833 899.5,572.167 899.5,578.5C 894.428,594.444 885.428,607.944 872.5,619C 837.835,647.787 797.835,663.453 752.5,666C 740.505,666.5 728.505,666.667 716.5,666.5C 715.081,665.549 713.415,665.216 711.5,665.5C 711.5,667.833 711.5,670.167 711.5,672.5C 711.094,709.797 707.594,746.797 701,783.5C 695.256,817.637 681.923,848.304 661,875.5C 643.867,894.654 623.033,908.154 598.5,916C 582.256,920.811 565.923,924.644 549.5,927.5C 539.167,927.5 528.833,927.5 518.5,927.5C 480.828,921.387 454.328,900.72 439,865.5C 424.3,830.336 416.634,793.669 416,755.5C 415.115,734.16 414.115,712.827 413,691.5C 385.239,703.157 356.406,706.657 326.5,702C 305.085,699.752 285.419,692.752 267.5,681C 263.43,678.053 259.93,674.553 257,670.5C 222.15,697.521 186.65,698.354 150.5,673C 130.266,655.44 113.766,634.94 101,611.5C 71.4254,553.114 48.7587,492.114 33,428.5C 22.6449,390.223 14.1449,351.556 7.5,312.5C 7.93214,309.123 7.26548,306.123 5.5,303.5C 3.29509,289.729 1.29509,276.062 -0.5,262.5C -0.5,244.167 -0.5,225.833 -0.5,207.5C 1.9973,164.508 14.8306,124.841 38,88.5C 71.0898,45.1922 114.923,20.3589 169.5,14C 232.675,8.35778 294.175,16.1911 354,37.5C 388.951,18.2201 426.451,8.55339 466.5,8.5C 489.947,9.17613 513.28,11.1761 536.5,14.5C 564.576,7.28168 592.91,2.28168 621.5,-0.5 Z"></path></g>
      <g><path style="opacity:1" fill="#fcfdfd" d="M 375.5,569.5 C 376.404,568.791 376.737,567.791 376.5,566.5C 373.167,566.5 369.833,566.5 366.5,566.5C 355.753,565.73 345.419,563.23 335.5,559C 331.921,557.294 328.421,555.461 325,553.5C 296.092,584.404 267.925,615.904 240.5,648C 215.101,668.281 189.435,668.614 163.5,649C 140.904,627.399 123.404,602.233 111,573.5C 85.4886,514.299 65.1553,453.299 50,390.5C 38.841,345.37 30.5077,299.703 25,253.5C 23.5432,228.017 24.8765,202.684 29,177.5C 44.2556,96.243 92.7556,49.743 174.5,38C 224.439,33.7114 273.439,38.7114 321.5,53C 333.598,56.55 345.598,60.3833 357.5,64.5C 398.524,38.9253 443.191,29.092 491.5,35C 506.145,36.6636 520.645,39.1636 535,42.5C 593.355,22.8666 652.855,19.0333 713.5,31C 771.844,44.5666 819.011,75.0666 855,122.5C 862.358,136.621 866.691,151.621 868,167.5C 869.011,207.747 864.677,247.414 855,286.5C 831.274,380.273 793.107,467.606 740.5,548.5C 745.391,552.609 751.057,555.109 757.5,556C 774.209,558.109 790.876,557.776 807.5,555C 819.196,553.159 830.863,551.159 842.5,549C 855.452,546.235 865.285,550.402 872,561.5C 873.061,567.724 872.394,573.724 870,579.5C 866.002,585.979 861.168,591.812 855.5,597C 823.971,622.963 787.637,636.963 746.5,639C 728.304,640.404 710.304,639.237 692.5,635.5C 687.399,689.707 680.566,743.707 672,797.5C 664.248,849.574 635.081,882.407 584.5,896C 563.581,902.513 542.247,904.513 520.5,902C 494.769,897.584 474.936,884.417 461,862.5C 445.696,837.389 438.029,810.056 438,780.5C 435.324,735.543 433.991,690.543 434,645.5C 410.174,666.641 382.174,676.975 350,676.5C 333.14,675.711 316.64,672.877 300.5,668C 291.268,664.47 283.102,659.304 276,652.5C 267.227,639.219 269.06,627.719 281.5,618C 287.264,614.784 293.264,612.117 299.5,610C 312.222,607.213 324.889,604.213 337.5,601C 347.818,598.761 356.318,593.594 363,585.5C 367,580.005 371.166,574.671 375.5,569.5 Z"></path></g>
      <g><path style="opacity:1" fill="#336790" d="M 622.5,50.5 C 666.415,47.2786 708.748,53.7786 749.5,70C 781.916,84.4147 809.083,105.581 831,133.5C 834.754,139.008 837.42,145.008 839,151.5C 843.19,175.752 843.523,200.085 840,224.5C 821.959,332.29 783.626,432.29 725,524.5C 723.122,522.957 721.622,521.124 720.5,519C 738.169,488.137 744.669,454.97 740,419.5C 737.738,398 735.571,376.5 733.5,355C 735.162,328.71 737.995,302.543 742,276.5C 742.667,266.167 742.667,255.833 742,245.5C 714.297,159.801 660.131,96.9677 579.5,57C 593.907,54.3745 608.24,52.2078 622.5,50.5 Z"></path></g>
      <g><path style="opacity:1" fill="#326790" d="M 442.5,60.5 C 545.485,55.4094 625.652,95.4094 683,180.5C 695.037,199.575 705.204,219.575 713.5,240.5C 699.539,240.545 685.539,240.711 671.5,241C 621.111,247.905 598.611,276.738 604,327.5C 606.118,343.972 610.118,359.972 616,375.5C 630.359,411.55 647.359,446.217 667,479.5C 677.097,503.726 690.597,525.726 707.5,545.5C 684.897,552.603 672.397,567.936 670,591.5C 665.575,651.083 658.908,710.416 650,769.5C 647.968,784.695 644.968,799.695 641,814.5C 636.114,829.785 627.614,842.618 615.5,853C 598.613,864.633 579.947,871.967 559.5,875C 526.677,883.623 500.844,874.123 482,846.5C 472.347,831.223 467.014,814.557 466,796.5C 460.666,732.265 459.166,667.932 461.5,603.5C 461.743,583.489 454.076,567.322 438.5,555C 428.122,548.091 416.789,545.591 404.5,547.5C 410.891,523.293 419.724,499.959 431,477.5C 448.763,434.368 454.096,389.701 447,343.5C 444.591,323.031 440.258,303.031 434,283.5C 423.053,260.567 404.886,247.734 379.5,245C 346.611,243.68 316.111,251.514 288,268.5C 290.218,214.847 306.218,165.847 336,121.5C 363.255,86.7887 398.755,66.4553 442.5,60.5 Z"></path></g>
      <g><path style="opacity:1" fill="#326790" d="M 182.5,62.5 C 234.307,59.785 284.64,67.1183 333.5,84.5C 301.072,120.175 279.905,161.842 270,209.5C 264.09,237.527 260.923,265.86 260.5,294.5C 262.177,320.478 262.677,346.478 262,372.5C 261.007,393.928 259.174,415.261 256.5,436.5C 257.391,477.233 272.724,511.233 302.5,538.5C 276.019,568.815 249.353,598.982 222.5,629C 209.1,639.922 195.433,640.255 181.5,630C 166.571,616.317 154.404,600.484 145,582.5C 124.413,542.077 107.747,500.077 95,456.5C 79.6572,404.115 66.9906,351.115 57,297.5C 48.8212,256.876 48.4879,216.209 56,175.5C 71.3071,107.69 113.474,70.0231 182.5,62.5 Z"></path></g>
      <g><path style="opacity:1" fill="#336790" d="M 671.5,266.5 C 686.517,266.311 701.517,266.645 716.5,267.5C 715.612,284.995 713.445,302.329 710,319.5C 709.001,330.656 708.168,341.823 707.5,353C 708.647,375.265 710.814,397.432 714,419.5C 717.382,445.776 714.049,471.109 704,495.5C 694.366,474.897 683.7,454.897 672,435.5C 659.058,411.957 648.058,387.624 639,362.5C 632.093,343.059 629.093,323.059 630,302.5C 631.954,287.739 639.788,277.572 653.5,272C 659.612,270.091 665.612,268.257 671.5,266.5 Z"></path></g>
      <g><path style="opacity:1" fill="#fbfcfd" d="M 668.5,278.5 C 674.565,278.261 680.565,278.761 686.5,280C 693.588,283.551 694.422,288.384 689,294.5C 677.863,307.447 665.529,308.78 652,298.5C 646.893,293.045 647.393,288.212 653.5,284C 658.299,281.238 663.299,279.404 668.5,278.5 Z"></path></g>
      <g><path style="opacity:1" fill="#326790" d="M 359.5,270.5 C 390.606,266.616 409.106,279.95 415,310.5C 421.85,341.818 424.517,373.485 423,405.5C 420.884,423.296 416.884,440.629 411,457.5C 403.661,474.843 396.327,492.177 389,509.5C 384.712,519.862 381.545,530.528 379.5,541.5C 334.958,538.129 304.791,515.463 289,473.5C 283.816,456.224 282.149,438.557 284,420.5C 288.679,380.581 289.679,340.581 287,300.5C 308.737,284.535 332.904,274.535 359.5,270.5 Z"></path></g>
      <g><path style="opacity:1" fill="#fcfdfd" d="M 361.5,285.5 C 372.08,284.711 382.413,285.877 392.5,289C 404.15,295.954 404.483,303.621 393.5,312C 375.968,320.489 362.802,315.989 354,298.5C 352.918,292.086 355.418,287.752 361.5,285.5 Z"></path></g>
      <g><path style="opacity:0.6" fill="#595959" d="M 5.5,303.5 C 7.26548,306.123 7.93214,309.123 7.5,312.5C 6.52501,309.689 5.85834,306.689 5.5,303.5 Z"></path></g>
      <g><path style="opacity:0.651" fill="#969696" d="M 366.5,566.5 C 369.833,566.5 373.167,566.5 376.5,566.5C 376.737,567.791 376.404,568.791 375.5,569.5C 372.797,567.89 369.797,566.89 366.5,566.5 Z"></path></g>
      <g><path style="opacity:1" fill="#346790" d="M 718.5,569.5 C 720.527,569.338 722.527,569.505 724.5,570C 735.662,577.499 747.995,581.833 761.5,583C 771.5,583.667 781.5,583.667 791.5,583C 807.266,581.325 822.933,579.325 838.5,577C 810.795,599.946 778.795,611.946 742.5,613C 729.397,614.068 716.397,613.401 703.5,611C 700.804,610.235 698.304,609.068 696,607.5C 692.15,587.721 699.65,575.054 718.5,569.5 Z"></path></g>
      <g><path style="opacity:1" fill="#346791" d="M 409.5,572.5 C 427.413,574.955 435.913,585.288 435,603.5C 416.087,634.549 388.253,649.882 351.5,649.5C 335.615,650.236 320.282,647.736 305.5,642C 303.5,640.667 301.5,639.333 299.5,638C 314.622,633.365 329.955,629.365 345.5,626C 359.952,622.192 372.118,614.692 382,603.5C 390.273,592.22 399.44,581.886 409.5,572.5 Z"></path></g>
      <g><path style="opacity:1" fill="#858585" d="M 716.5,666.5 C 715.167,666.5 713.833,666.5 712.5,666.5C 712.795,668.735 712.461,670.735 711.5,672.5C 711.5,670.167 711.5,667.833 711.5,665.5C 713.415,665.216 715.081,665.549 716.5,666.5 Z"></path></g>
    </g>

    <!-- PostgreSQL 文本 -->
    <text x="286.75" y="352" text-anchor="middle" class="text" font-size="38">
      PostgreSQL
    </text>

  </g>
</svg>
